<?xml version="1.0" encoding="utf-8"?>
<svg viewBox="0 0 500 500" xmlns="http://www.w3.org/2000/svg">
  <path style="stroke: rgb(0, 0, 0); fill: rgba(216, 216, 216, 0); stroke-width: 10px;" d="M 331.579 245.391 C 330.888 279.597 491.409 390.254 257.619 472.027 C 183.43 497.976 116.817 479.319 76.538 374.911 C 50.396 307.149 46.932 183.493 82.135 106.278 C 113.281 37.962 164.939 6.851 237.238 24.729 C 441.862 75.327 333.344 157.959 331.579 245.391 Z"/>
  <path style="stroke: rgb(0, 0, 0);" d="M 185.469 55.383 C 149.348 61.776 126.014 81.594 115.465 114.838 C 111.962 125.878 117.444 146.196 129.849 144.566 C 139.603 143.284 151.665 140.144 154.782 112.921 C 156.561 97.385 175.101 82.361 196.977 77.439 C 216.899 72.957 210.186 49.303 185.469 55.383 Z"/>
</svg>